<?xml version="1.0" encoding="UTF-8"?>
<svg id="Layer_1" data-name="Layer 1" xmlns="http://www.w3.org/2000/svg" xmlns:xlink="http://www.w3.org/1999/xlink" viewBox="0 0 415.44 315">
  <defs>
    <style>
      .cls-1 {
        filter: url(#drop-shadow-1);
      }

      .cls-2 {
        filter: url(#drop-shadow-3);
      }

      .cls-3 {
        filter: url(#drop-shadow-2);
      }

      .cls-4 {
        filter: url(#drop-shadow-6);
      }

      .cls-5 {
        filter: url(#drop-shadow-7);
      }

      .cls-6 {
        filter: url(#drop-shadow-5);
      }

      .cls-7 {
        filter: url(#drop-shadow-4);
      }

      .cls-8 {
        letter-spacing: .18em;
      }

      .cls-9 {
        letter-spacing: .18em;
      }

      .cls-10 {
        letter-spacing: .2em;
      }

      .cls-11 {
        letter-spacing: .19em;
      }

      .cls-12 {
        fill: #b88f4f;
        font-family: AcuminConcept-Bold, 'Acumin Variable Concept';
        font-size: 14.97px;
        font-variation-settings: 'wght' 700, 'wdth' 100, 'slnt' 0;
        font-weight: 700;
      }

      .cls-13 {
        letter-spacing: .16em;
      }

      .cls-14 {
        letter-spacing: .16em;
      }

      .cls-15 {
        letter-spacing: .17em;
      }

      .cls-16 {
        letter-spacing: .17em;
      }

      .cls-17 {
        letter-spacing: .17em;
      }

      .cls-18 {
        letter-spacing: .18em;
      }

      .cls-19 {
        letter-spacing: .18em;
      }

      .cls-20 {
        letter-spacing: .17em;
      }

      .cls-21 {
        letter-spacing: .18em;
      }

      .cls-22 {
        fill: #aa8448;
      }

      .cls-23 {
        letter-spacing: .1em;
      }

      .cls-24 {
        letter-spacing: .1em;
      }
    </style>
    <filter id="drop-shadow-1" x="129.6" y="0" width="131.28" height="48" filterUnits="userSpaceOnUse">
      <feOffset dx="1" dy="4"/>
      <feGaussianBlur result="blur" stdDeviation="2"/>
      <feFlood flood-color="#777" flood-opacity=".39"/>
      <feComposite in2="blur" operator="in"/>
      <feComposite in="SourceGraphic"/>
    </filter>
    <filter id="drop-shadow-2" x="88.8" y="38.88" width="196.08" height="47.52" filterUnits="userSpaceOnUse">
      <feOffset dx="1" dy="4"/>
      <feGaussianBlur result="blur-2" stdDeviation="2"/>
      <feFlood flood-color="#777" flood-opacity=".39"/>
      <feComposite in2="blur-2" operator="in"/>
      <feComposite in="SourceGraphic"/>
    </filter>
    <filter id="drop-shadow-3" x="110.16" y="73.68" width="141.36" height="39.12" filterUnits="userSpaceOnUse">
      <feOffset dx="1" dy="4"/>
      <feGaussianBlur result="blur-3" stdDeviation="2"/>
      <feFlood flood-color="#777" flood-opacity=".39"/>
      <feComposite in2="blur-3" operator="in"/>
      <feComposite in="SourceGraphic"/>
    </filter>
    <filter id="drop-shadow-4" x="0" y="150.72" width="109.92" height="108.24" filterUnits="userSpaceOnUse">
      <feOffset dx="4" dy="6"/>
      <feGaussianBlur result="blur-4" stdDeviation="2"/>
      <feFlood flood-color="#777" flood-opacity=".25"/>
      <feComposite in2="blur-4" operator="in"/>
      <feComposite in="SourceGraphic"/>
    </filter>
    <filter id="drop-shadow-5" x="114.72" y="150.96" width="104.88" height="107.76" filterUnits="userSpaceOnUse">
      <feOffset dx="4" dy="6"/>
      <feGaussianBlur result="blur-5" stdDeviation="2"/>
      <feFlood flood-color="#777" flood-opacity=".25"/>
      <feComposite in2="blur-5" operator="in"/>
      <feComposite in="SourceGraphic"/>
    </filter>
    <filter id="drop-shadow-6" x="227.28" y="149.52" width="71.76" height="111.36" filterUnits="userSpaceOnUse">
      <feOffset dx="4" dy="6"/>
      <feGaussianBlur result="blur-6" stdDeviation="2"/>
      <feFlood flood-color="#777" flood-opacity=".25"/>
      <feComposite in2="blur-6" operator="in"/>
      <feComposite in="SourceGraphic"/>
    </filter>
    <filter id="drop-shadow-7" x="306.72" y="150.96" width="108.72" height="107.76" filterUnits="userSpaceOnUse">
      <feOffset dx="4" dy="6"/>
      <feGaussianBlur result="blur-7" stdDeviation="2"/>
      <feFlood flood-color="#777" flood-opacity=".25"/>
      <feComposite in2="blur-7" operator="in"/>
      <feComposite in="SourceGraphic"/>
    </filter>
  </defs>
  <g>
    <g class="cls-1">
      <path class="cls-22" d="M134.81,37.82c.54-.51.94-1.39,1.38-1.99,1.28-1.78,2.63-3.51,4.03-5.2,4.53-5.46,9.58-10.49,15.14-14.86,15.44-12.12,35.03-17.35,53.81-10.67,10.54,3.75,18.02,10.84,26.51,17.83,1.36,1.12,2.77,2.19,4.26,3.12,2.09,1.31,4.27,2.46,6.54,3.4,1.15.47,2.32.89,3.51,1.24.82.24,2.87,1.13,3.69.84-14.09,4.88-26.85-1.76-38.85-8.71-9.97-5.77-20.28-9.49-31.87-8.82s-22.53,5.02-32.21,11.19c-1.38.88-2.73,1.8-4.06,2.75-4.18,3-8.13,6.33-11.88,9.86Z"/>
    </g>
    <g class="cls-3">
      <path class="cls-22" d="M93.93,66.34c1.78-.96,3.41-2.74,5.12-3.88,4.89-3.27,10.2-5.91,15.65-8.06,9.09-3.58,18.67-5.78,28.36-6.79,20.02-2.09,39.87.9,59.24,5.97,8.56,2.24,17.15,4.56,25.95,5.58,14.59,1.7,32.09-1.7,43.48-11.6,2.26-1.97,4.3-4.21,6.02-6.68-.68.98-.88,2.93-1.31,4.06-1.3,3.39-2.99,6.63-4.99,9.64-6.4,9.66-16.01,16.51-27.04,19.6-13.28,3.72-26.86,2.02-39.91-1.84-11.75-3.47-23.26-7.64-35.23-10.23-12.09-2.62-24.47-4.04-36.83-3.91-4,.04-8,.25-11.97.65-9.15.92-18.35,3.07-26.52,7.48Z"/>
    </g>
    <g class="cls-2">
      <path class="cls-22" d="M115.16,83.1c5.77-3.09,12.46-4.86,18.83-6.03,13.08-2.39,25.96-1.29,38.42,3.37,8.88,3.32,17.56,6.68,26.9,8.43,8.95,1.68,18.2,2.16,27.2.58,6.28-1.1,12.37-3.22,17.95-6.36-.58.33-1.18,1.41-1.64,1.9-1.55,1.68-3.24,3.24-4.99,4.7-9.45,7.82-21.21,12.29-33.38,12.92-5.12.27-10.25-.38-15.23-1.59-8.33-2.02-16.23-5.54-24.13-8.89-12.28-5.21-24.63-9.02-38.03-9.43-1.94-.06-10.52-.35-11.9.39Z"/>
    </g>
    <path class="cls-22" d="M85.85,300.17l-4.21-6.13c-.26.03-.53.03-.79.03h-4.65v6.1h-3.82v-20.94h8.47c5.41,0,8.76,2.81,8.76,7.45,0,3.17-1.59,5.5-4.38,6.61l4.74,6.88h-4.12ZM80.68,282.52h-4.47v8.34h4.47c3.35,0,5.09-1.56,5.09-4.19s-1.74-4.16-5.09-4.16Z"/>
    <path class="cls-22" d="M138.73,296.91v3.26h-15.44v-20.94h15.03v3.26h-11.21v5.44h9.94v3.2h-9.94v5.77h11.62Z"/>
    <path class="cls-22" d="M185.76,295.33h-10.29l-2.03,4.85h-3.94l9.26-20.94h3.76l9.29,20.94h-4l-2.06-4.85ZM184.5,292.28l-3.88-9.15-3.85,9.15h7.74Z"/>
    <path class="cls-22" d="M223.85,279.23h3.82v17.65h10.77v3.29h-14.59v-20.94Z"/>
    <path class="cls-22" d="M273.14,282.52h-6.82v-3.29h17.47v3.29h-6.82v17.65h-3.82v-17.65Z"/>
    <path class="cls-22" d="M324.67,292.78v7.39h-3.82v-7.33l-8.09-13.61h4.09l6.03,10.2,6.09-10.2h3.76l-8.06,13.55Z"/>
    <g class="cls-7">
      <path class="cls-22" d="M2.02,244.72s9.43-.67,9.75-5.02v-77.91s.29-6.93-9.75-9.1v-1.77h24.27l56.89,71.7v-63.16s-1.58-5.99-9.19-6.47l-.08-2.07h25.99v1.91s-9.35-.4-10.22,7.49l-.79,86.53h-4.12L18.21,164.02l-1.32.05.74,74.66s2.77,5.56,10.06,5.88v2.23l-25.67-.54v-1.58Z"/>
    </g>
    <g class="cls-6">
      <path class="cls-22" d="M116.94,151.26v1.93s7.13-1.77,12.52,7.73l27.1,43.67.32,34.32s-2.06,6.28-9.82,5.8v1.93l34.39-.48-.16-1.45s-7.45.32-9.51-5.32l-.48-35.77,24.88-42.22s4.6-8.22,13.31-8.54l-.32-1.61h-25.51v1.93s9.77-.91,6.97,7.95l-21.66,37.28-23.77-38.56s-2.22-7.2,5.6-7.2v-1.61l-33.86.21Z"/>
    </g>
    <g class="cls-4">
      <path class="cls-22" d="M284.11,154.38l.48,17.89-1.43.32s-.63-16.6-22.03-19.5c0,0-15.84.81-17.59,12.08-1.21,7.82,2.6,14.62,9,18.67,10.1,6.39,23.7,11.41,31.12,21.11,6.87,8.97,6.69,20,1.24,29.67,0,0-14.26,25.3-54.03,8.22l-1.43-22.24h.95s3.17,16.76,15.85,20.79c0,0,26.78,11.44,29.95-13.7,0,0,2.06-13.7-11.09-19.17,0,0-26.94-11.76-29.16-18.69,0,0-9.82-12.73-.48-28.52,0,0,9.35-20.79,48.65-6.93Z"/>
    </g>
    <g class="cls-5">
      <path class="cls-22" d="M371.9,244.94l-.16,1.61,33.6-.48-.32-1.77s-9.35.32-11.73-10.31l-32.33-82.82h-17.74v1.77s8.71-.48,4.12,9.67l-26.78,73.64s-2.22,8.38-11.73,8.22v2.09l25.83-.64-.16-1.29s-11.88,1.77-6.82-14.99l6.18-16.11,36.76-.48,8.72,23.52s1.27,8.06-7.45,8.38ZM335.77,209.16l15.84-43.99,17.27,43.51-33.12.48Z"/>
    </g>
  </g>
</svg>

